<?xml version="1.0" encoding="UTF-8"?>
<svg width="24px" height="22px" viewBox="0 0 24 22" version="1.1" xmlns="http://www.w3.org/2000/svg" xmlns:xlink="http://www.w3.org/1999/xlink">
    <!-- Generator: Sketch 52.6 (67491) - http://www.bohemiancoding.com/sketch -->
    <desc>Created with Sketch.</desc>
    <g id="Home" stroke="none" stroke-width="1" fill="none" fill-rule="evenodd">
        <g id="0.0-Navigation---Expand" transform="translate(-420.000000, -33.000000)" fill="#FFFFFF">
            <g id="Hamburger-Collapse" transform="translate(420.000000, 33.000000)">
                <rect id="Rectangle-5" x="0" y="0" width="23.7176471" height="2.37176471" rx="1.18588235"></rect>
                <path d="M1.18588235,8.30117647 L22.5317647,8.30117647 C23.1867094,8.30117647 23.7176471,8.83211408 23.7176471,9.48705882 L23.7176471,9.48705882 C23.7176471,10.1420036 23.1867094,10.6729412 22.5317647,10.6729412 L1.18588235,10.6729412 C0.530937614,10.6729412 8.02075978e-17,10.1420036 0,9.48705882 L0,9.48705882 C-8.02075978e-17,8.83211408 0.530937614,8.30117647 1.18588235,8.30117647 Z" id="Rectangle-5-Copy"></path>
                <path d="M7.11529412,16.6023529 L22.5317647,16.6023529 C23.1867094,16.6023529 23.7176471,17.1332906 23.7176471,17.7882353 L23.7176471,17.7882353 C23.7176471,18.44318 23.1867094,18.9741176 22.5317647,18.9741176 L7.11529412,18.9741176 C6.46034938,18.9741176 5.92941176,18.44318 5.92941176,17.7882353 L5.92941176,17.7882353 C5.92941176,17.1332906 6.46034938,16.6023529 7.11529412,16.6023529 Z" id="Rectangle-5-Copy-2"></path>
                <path d="M7.08549732,14.7937326 L10.6431444,14.7937326 C11.2980891,14.7937326 11.8290267,15.3246702 11.8290267,15.979615 L11.8290267,15.979615 C11.8290267,16.6345597 11.2980891,17.1654973 10.6431444,17.1654973 L7.08549732,17.1654973 C6.43055258,17.1654973 5.89961497,16.6345597 5.89961497,15.979615 L5.89961497,15.979615 C5.89961497,15.3246702 6.43055258,14.7937326 7.08549732,14.7937326 Z" id="Rectangle-5-Copy-3" transform="translate(8.864321, 15.979615) scale(1, -1) rotate(45.000000) translate(-8.864321, -15.979615) "></path>
                <path d="M7.08549732,18.3513797 L10.6431444,18.3513797 C11.2980891,18.3513797 11.8290267,18.8823173 11.8290267,19.537262 L11.8290267,19.537262 C11.8290267,20.1922068 11.2980891,20.7231444 10.6431444,20.7231444 L7.08549732,20.7231444 C6.43055258,20.7231444 5.89961497,20.1922068 5.89961497,19.537262 L5.89961497,19.537262 C5.89961497,18.8823173 6.43055258,18.3513797 7.08549732,18.3513797 Z" id="Rectangle-5-Copy-4" transform="translate(8.864321, 19.537262) scale(-1, -1) rotate(45.000000) translate(-8.864321, -19.537262) "></path>
            </g>
        </g>
    </g>
</svg>
