<?xml version="1.0" encoding="UTF-8"?>
<svg width="16px" height="16px" viewBox="0 0 16 16" version="1.1" xmlns="http://www.w3.org/2000/svg" xmlns:xlink="http://www.w3.org/1999/xlink">
    <!-- Generator: Sketch 58 (84663) - https://sketch.com -->
    <desc>Created with Sketch.</desc>
    <g id="Symbols" stroke="none" stroke-width="1" fill="none" fill-rule="evenodd" stroke-linecap="round" stroke-linejoin="round">
        <g id="Icon/Small/History" stroke="#000000">
            <g id="Group" transform="translate(1.000000, 1.000000)">
                <path d="M-3.33066907e-16,7 C-3.33066907e-16,10.8659932 3.13400675,14 7,14 C10.8659932,14 14,10.8659932 14,7 C14,3.13400675 10.8659932,-3.33066907e-16 7,-3.33066907e-16 C3.13400675,-3.33066907e-16 -3.33066907e-16,3.13400675 -3.33066907e-16,7 Z" id="Path"></path>
                <path d="M6,7 C6,7.55228475 6.44771525,8 7,8 C7.55228475,8 8,7.55228475 8,7 C8,6.44771525 7.55228475,6 7,6 C6.44771525,6 6,6.44771525 6,7 Z" id="Path"></path>
                <path d="M7,6 L7,2.5" id="Path"></path>
                <path d="M7.70733333,7.70733333 L9.5,9.5" id="Path"></path>
            </g>
        </g>
    </g>
</svg>
